<svg xmlns="http://www.w3.org/2000/svg" viewBox="0 0 512 512">
  <defs>
    <linearGradient id="bg" x1="0" y1="0" x2="1" y2="1">
      <stop offset="0" stop-color="#242424"/>
      <stop offset="1" stop-color="#0B0B0D"/>
    </linearGradient>
    <linearGradient id="red" x1="0" y1="0" x2="1" y2="1">
      <stop offset="0" stop-color="#FF4A45"/>
      <stop offset="0.52" stop-color="#FF2328"/>
      <stop offset="1" stop-color="#C90012"/>
    </linearGradient>
    <filter id="shadow" x="-30%" y="-30%" width="160%" height="160%">
      <feDropShadow dx="0" dy="18" stdDeviation="18" flood-color="#000" flood-opacity=".45"/>
    </filter>
  </defs>
  <rect x="20" y="20" width="472" height="472" rx="112" fill="url(#bg)"/>
  <g filter="url(#shadow)">
    <path d="M124 112c-20 12-32 34-32 58v172c0 24 12 46 32 58l143-144L124 112z" fill="#D8091B"/>
    <path d="M124 112l234 103c34 15 34 67 0 82L124 400l143-144L124 112z" fill="url(#red)"/>
    <path d="M205 184c-17-10-38 2-38 22v100c0 20 21 32 38 22l82-50c16-10 16-34 0-44l-82-50z" fill="#FFF"/>
  </g>
  <path d="M394 90l9 24 24 9-24 9-9 24-9-24-24-9 24-9 9-24z" fill="#FFF"/>
  <path d="M394 99l5 15 15 5-15 5-5 15-5-15-15-5 15-5 5-15z" fill="#FF4A45"/>
</svg>
