<svg xmlns="http://www.w3.org/2000/svg" viewBox="0 0 1280 420">
  <rect width="1280" height="420" rx="44" fill="#0B0B0D"/>
  <g transform="translate(54 54) scale(.61)">
    <defs><linearGradient id="a" x1="0" y1="0" x2="1" y2="1"><stop stop-color="#FF4A45"/><stop offset="1" stop-color="#D00017"/></linearGradient></defs>
    <rect x="20" y="20" width="472" height="472" rx="112" fill="#17171A"/>
    <path d="M124 112c-20 12-32 34-32 58v172c0 24 12 46 32 58l143-144L124 112z" fill="#D8091B"/>
    <path d="M124 112l234 103c34 15 34 67 0 82L124 400l143-144L124 112z" fill="url(#a)"/>
    <path d="M205 184c-17-10-38 2-38 22v100c0 20 21 32 38 22l82-50c16-10 16-34 0-44l-82-50z" fill="#FFF"/>
  </g>
  <text x="410" y="215" font-family="Inter, Arial, sans-serif" font-weight="800" font-size="136" fill="#FF3435">Vey</text>
  <text x="670" y="215" font-family="Inter, Arial, sans-serif" font-weight="800" font-size="136" fill="#FFF">Play</text>
  <text x="416" y="290" font-family="Inter, Arial, sans-serif" font-weight="500" font-size="42" fill="#B8B8BE">Video liền mạch. Trải nghiệm tối giản.</text>
</svg>
